<svg width="26" height="24" viewBox="0 0 26 24" fill="none" xmlns="http://www.w3.org/2000/svg">
<path d="M12.9375 2C8.19375 2 4.3125 5.88125 4.3125 10.625C4.3125 16.4469 11.8594 23.0234 12.1828 23.3469C12.3984 23.4547 12.7219 23.5625 12.9375 23.5625C13.1531 23.5625 13.4766 23.4547 13.6922 23.3469C14.0156 23.0234 21.5625 16.4469 21.5625 10.625C21.5625 5.88125 17.6813 2 12.9375 2ZM12.9375 21.0828C10.6734 18.9266 6.46875 14.2906 6.46875 10.625C6.46875 7.06719 9.37969 4.15625 12.9375 4.15625C16.4953 4.15625 19.4062 7.06719 19.4062 10.625C19.4062 14.1828 15.2016 18.9266 12.9375 21.0828ZM12.9375 6.3125C10.5656 6.3125 8.625 8.25312 8.625 10.625C8.625 12.9969 10.5656 14.9375 12.9375 14.9375C15.3094 14.9375 17.25 12.9969 17.25 10.625C17.25 8.25312 15.3094 6.3125 12.9375 6.3125ZM12.9375 12.7812C11.7516 12.7812 10.7812 11.8109 10.7812 10.625C10.7812 9.43906 11.7516 8.46875 12.9375 8.46875C14.1234 8.46875 15.0938 9.43906 15.0938 10.625C15.0938 11.8109 14.1234 12.7812 12.9375 12.7812Z" fill="#2290FF" fill-opacity="0.5"/>
</svg>
