<svg width="142" height="122" viewBox="0 0 142 122" fill="none" xmlns="http://www.w3.org/2000/svg">
<path d="M106.5 89.377C124.612 72.9128 135.48 52.9206 142 35.7508C140.551 31.5171 139.102 27.7539 138.136 23.9907C131.857 32.6932 125.337 40.4548 119.058 47.2757C111.571 55.0374 104.568 57.8598 100.704 59.271C73.898 68.4439 54.5782 57.1542 54.5782 57.1542C65.6871 72.2072 78.7279 75.0296 88.6292 74.5592C54.3367 99.0203 28.4966 97.8443 28.4966 97.8443C28.4966 97.8443 33.8095 31.5171 137.412 0C66.8946 2.58723 9.41837 54.567 0 121.6C50.2313 124.657 84.0408 109.84 106.5 89.377Z" fill="white"/>
</svg>
