<svg width="50" height="50" viewBox="0 0 50 50" fill="none" xmlns="http://www.w3.org/2000/svg">
<path d="M24.8333 45.6667C21.9514 45.6667 19.2431 45.1194 16.7083 44.025C14.1736 42.9306 11.9688 41.4465 10.0938 39.5729C8.21875 37.6993 6.73473 35.4944 5.64167 32.9583C4.54861 30.4222 4.00139 27.7139 4 24.8333C3.99861 21.9528 4.54584 19.2444 5.64167 16.7083C6.7375 14.1722 8.22153 11.9674 10.0938 10.0938C11.966 8.22014 14.1708 6.73611 16.7083 5.64167C19.2458 4.54722 21.9542 4 24.8333 4C25.5278 4 26.2222 4.04375 26.9167 4.13125C27.6111 4.21875 28.3056 4.29653 29 4.36458V8.63542C28.3056 8.56597 27.6111 8.48819 26.9167 8.40208C26.2222 8.31597 25.5278 8.27222 24.8333 8.27083C23.9306 9.52083 23.1493 10.8319 22.4896 12.2042C21.8299 13.5764 21.2917 15.0083 20.875 16.5H26.9167V20.6667H19.9375C19.8333 21.3611 19.7556 22.0556 19.7042 22.75C19.6528 23.4444 19.6264 24.1389 19.625 24.8333C19.6236 25.5278 19.65 26.2222 19.7042 26.9167C19.7583 27.6111 19.8361 28.3056 19.9375 29H29.7292C29.8333 28.3056 29.9118 27.6111 29.9646 26.9167C30.0174 26.2222 30.0431 25.5278 30.0417 24.8333C30.0403 24.1389 30.0146 23.4444 29.9646 22.75C29.9146 22.0556 29.8361 21.3611 29.7292 20.6667H33.8958C34 21.3611 34.0785 22.0556 34.1313 22.75C34.184 23.4444 34.2097 24.1389 34.2083 24.8333C34.2069 25.5278 34.1813 26.2222 34.1313 26.9167C34.0813 27.6111 34.0028 28.3056 33.8958 29H40.9792C41.1528 28.3056 41.2833 27.6111 41.3708 26.9167C41.4583 26.2222 41.5014 25.5278 41.5 24.8333C41.4986 24.1389 41.4556 23.4444 41.3708 22.75C41.2861 22.0556 41.1556 21.3611 40.9792 20.6667H45.25C45.3889 21.3611 45.4931 22.0556 45.5625 22.75C45.632 23.4444 45.6667 24.1389 45.6667 24.8333C45.6667 27.7153 45.1194 30.4236 44.025 32.9583C42.9306 35.4931 41.4465 37.6979 39.5729 39.5729C37.6993 41.4479 35.4944 42.9326 32.9583 44.0271C30.4222 45.1215 27.7139 45.6681 24.8333 45.6667ZM8.6875 29H15.7708C15.6667 28.3056 15.5889 27.6111 15.5375 26.9167C15.4861 26.2222 15.4597 25.5278 15.4583 24.8333C15.4569 24.1389 15.4833 23.4444 15.5375 22.75C15.5917 22.0556 15.6694 21.3611 15.7708 20.6667H8.6875C8.51389 21.3611 8.38403 22.0556 8.29792 22.75C8.21181 23.4444 8.16806 24.1389 8.16667 24.8333C8.16528 25.5278 8.20903 26.2222 8.29792 26.9167C8.38681 27.6111 8.51667 28.3056 8.6875 29ZM19.4167 40.5625C18.7917 39.3819 18.2444 38.1757 17.775 36.9438C17.3056 35.7118 16.9153 34.4528 16.6042 33.1667H10.4583C11.4653 34.9375 12.7326 36.4569 14.2604 37.725C15.7882 38.9931 17.5069 39.9389 19.4167 40.5625ZM10.4583 16.5H16.6042C16.9167 15.2153 17.3076 13.9569 17.7771 12.725C18.2465 11.4931 18.7931 10.2861 19.4167 9.10417C17.5069 9.72917 15.7882 10.6757 14.2604 11.9438C12.7326 13.2118 11.4653 14.7306 10.4583 16.5ZM24.8333 41.3958C25.7361 40.1458 26.5174 38.8354 27.1771 37.4646C27.8368 36.0938 28.375 34.6611 28.7917 33.1667H20.875C21.2917 34.6597 21.8299 36.0924 22.4896 37.4646C23.1493 38.8368 23.9306 40.1472 24.8333 41.3958ZM30.25 40.5625C32.1597 39.9375 33.8785 38.9917 35.4063 37.725C36.934 36.4583 38.2014 34.9389 39.2083 33.1667H33.0625C32.75 34.4514 32.3597 35.7104 31.8917 36.9438C31.4236 38.1771 30.8764 39.3833 30.25 40.5625ZM33.1667 16.5V4H45.6667V16.5H33.1667ZM39.4167 10.25H43.5833V6.08333H39.4167V10.25Z" fill="url(#paint0_linear_2_900)"/>
<defs>
<linearGradient id="paint0_linear_2_900" x1="24.8333" y1="4" x2="24.8333" y2="45.6667" gradientUnits="userSpaceOnUse">
<stop stop-color="#538AD1"/>
<stop offset="1" stop-color="#3EA076"/>
</linearGradient>
</defs>
</svg>
