<svg width="48" height="48" viewBox="0 0 48 48" fill="none" xmlns="http://www.w3.org/2000/svg">
<path d="M41.9433 11.9187C41.3343 11.6322 40.6636 11.5569 40.0165 11.7024C39.3695 11.8478 38.7754 12.2075 38.31 12.7355L34 17.6027L26.3567 8.97126C25.7316 8.26557 24.8839 7.86914 24 7.86914C23.1161 7.86914 22.2684 8.26557 21.6433 8.97126L14 17.6027L9.69 12.7355C9.22383 12.2092 8.62995 11.8509 7.98344 11.7057C7.33693 11.5605 6.66682 11.635 6.05782 11.9199C5.44882 12.2047 4.92828 12.6871 4.56199 13.306C4.19571 13.9248 4.00014 14.6525 4 15.3968V35.3211C4.00265 37.816 4.88147 40.2079 6.4437 41.9721C8.00593 43.7363 10.124 44.7287 12.3333 44.7317H35.6667C37.876 44.7287 39.9941 43.7363 41.5563 41.9721C43.1185 40.2079 43.9974 37.816 44 35.3211V15.3968C44.0002 14.6524 43.8049 13.9246 43.4388 13.3055C43.0727 12.6864 42.5523 12.2038 41.9433 11.9187Z" fill="url(#paint0_linear_2_891)"/>
<defs>
<linearGradient id="paint0_linear_2_891" x1="-11" y1="-1.3465" x2="57.3543" y2="56.4413" gradientUnits="userSpaceOnUse">
<stop stop-color="#5D7EFC"/>
<stop offset="1" stop-color="#3EA076"/>
</linearGradient>
</defs>
</svg>
