<svg width="20" height="20" viewBox="0 0 20 20" fill="none" xmlns="http://www.w3.org/2000/svg">
<path d="M3.33301 9.99984C3.33301 10.2209 3.42081 10.4328 3.57709 10.5891C3.73337 10.7454 3.94533 10.8332 4.16634 10.8332C4.38735 10.8332 4.59932 10.7454 4.7556 10.5891C4.91188 10.4328 4.99967 10.2209 4.99967 9.99984C4.99967 9.77882 4.91188 9.56686 4.7556 9.41058C4.59932 9.2543 4.38735 9.1665 4.16634 9.1665C3.94533 9.1665 3.73337 9.2543 3.57709 9.41058C3.42081 9.56686 3.33301 9.77882 3.33301 9.99984ZM9.16634 9.99984C9.16634 10.2209 9.25414 10.4328 9.41042 10.5891C9.5667 10.7454 9.77866 10.8332 9.99967 10.8332C10.2207 10.8332 10.4326 10.7454 10.5889 10.5891C10.7452 10.4328 10.833 10.2209 10.833 9.99984C10.833 9.77882 10.7452 9.56686 10.5889 9.41058C10.4326 9.2543 10.2207 9.1665 9.99967 9.1665C9.77866 9.1665 9.5667 9.2543 9.41042 9.41058C9.25414 9.56686 9.16634 9.77882 9.16634 9.99984ZM14.9997 9.99984C14.9997 10.2209 15.0875 10.4328 15.2438 10.5891C15.4 10.7454 15.612 10.8332 15.833 10.8332C16.054 10.8332 16.266 10.7454 16.4223 10.5891C16.5785 10.4328 16.6663 10.2209 16.6663 9.99984C16.6663 9.77882 16.5785 9.56686 16.4223 9.41058C16.266 9.2543 16.054 9.1665 15.833 9.1665C15.612 9.1665 15.4 9.2543 15.2438 9.41058C15.0875 9.56686 14.9997 9.77882 14.9997 9.99984Z" stroke="white" stroke-width="2" stroke-linecap="round" stroke-linejoin="round"/>
</svg>
