<svg width="24" height="24" viewBox="0 0 24 24" fill="none" xmlns="http://www.w3.org/2000/svg">
<path d="M20.0261 10.8551C19.8934 9.17644 19.2665 7.57464 18.2246 6.25174C17.1827 4.92884 15.7723 3.94409 14.1715 3.42167C12.5706 2.89925 10.8509 2.86256 9.22927 3.31623C7.60759 3.76989 6.15656 4.6936 5.05917 5.97086C3.96178 7.24811 3.26717 8.82172 3.06294 10.4932C2.85872 12.1647 3.15402 13.8593 3.9116 15.3632C4.66919 16.8671 5.85513 18.113 7.31987 18.9438C8.78462 19.7745 10.4626 20.153 12.1421 20.0313M3.56842 8.68471H19.4842M3.56842 14.3689H12" stroke="#2290FF" stroke-opacity="0.5" stroke-width="2" stroke-linecap="round" stroke-linejoin="round"/>
<path d="M11.0515 3C9.4555 5.55753 8.60938 8.51166 8.60938 11.5263C8.60938 14.541 9.4555 17.4951 11.0515 20.0526M11.9989 3C13.598 5.56242 14.4443 8.5229 14.4412 11.5434M18.1568 17.2105V17.22M20.1661 19.2199C20.5637 18.8225 20.8345 18.316 20.9442 17.7647C21.0539 17.2134 20.9977 16.6419 20.7826 16.1225C20.5675 15.6031 20.2032 15.1592 19.7358 14.8469C19.2684 14.5345 18.7189 14.3678 18.1568 14.3678C17.5946 14.3678 17.0451 14.5345 16.5777 14.8469C16.1103 15.1592 15.746 15.6031 15.5309 16.1225C15.3158 16.6419 15.2596 17.2134 15.3693 17.7647C15.4791 18.316 15.7498 18.8225 16.1474 19.2199C16.5434 19.6165 17.2132 20.2099 18.1568 21C19.1528 20.1568 19.8226 19.5635 20.1661 19.2199Z" stroke="#2290FF" stroke-opacity="0.5" stroke-width="2" stroke-linecap="round" stroke-linejoin="round"/>
</svg>
