<svg width="50" height="50" viewBox="0 0 50 50" fill="none" xmlns="http://www.w3.org/2000/svg">
<path d="M31.25 31.2499V26.5624C31.25 24.9048 30.5915 23.3151 29.4194 22.143C28.2473 20.9709 26.6576 20.3124 25 20.3124C23.3424 20.3124 21.7527 20.9709 20.5806 22.143C19.4085 23.3151 18.75 24.9048 18.75 26.5624V31.2499C17.9216 31.2511 17.1274 31.5808 16.5417 32.1665C15.9559 32.7523 15.6262 33.5465 15.625 34.3749V43.7499C15.6262 44.5783 15.9559 45.3724 16.5417 45.9582C17.1274 46.544 17.9216 46.8736 18.75 46.8749H31.25C32.0784 46.8736 32.8726 46.544 33.4583 45.9582C34.0441 45.3724 34.3738 44.5783 34.375 43.7499V34.3749C34.3738 33.5465 34.0441 32.7523 33.4583 32.1665C32.8726 31.5808 32.0784 31.2511 31.25 31.2499ZM21.875 26.5624C21.875 25.7336 22.2042 24.9387 22.7903 24.3527C23.3763 23.7666 24.1712 23.4374 25 23.4374C25.8288 23.4374 26.6237 23.7666 27.2097 24.3527C27.7958 24.9387 28.125 25.7336 28.125 26.5624V31.2499H21.875V26.5624ZM18.75 43.7499V34.3749H31.25V43.7499H18.75ZM9.53906 11.1015L11.7484 13.3108C13.4872 11.568 15.5527 10.1853 17.8266 9.24186C20.1005 8.29843 22.5382 7.81281 25 7.81281C27.4619 7.81281 29.8995 8.29843 32.1734 9.24186C34.4473 10.1853 36.5128 11.568 38.2516 13.3108L40.4609 11.1015C38.432 9.06855 36.0221 7.45574 33.3691 6.35532C30.7161 5.2549 27.8722 4.68848 25 4.68848C22.1278 4.68848 19.2839 5.2549 16.6309 6.35532C13.9779 7.45574 11.568 9.06855 9.53906 11.1015Z" fill="url(#paint0_linear_2_906)"/>
<path d="M25 12.5C23.1535 12.4991 21.325 12.863 19.6196 13.5709C17.9142 14.2788 16.3655 15.3167 15.0625 16.625L17.2687 18.8328C18.2832 17.8164 19.4882 17.01 20.8147 16.4597C22.1412 15.9095 23.5631 15.6263 24.9992 15.6263C26.4353 15.6263 27.8573 15.9095 29.1838 16.4597C30.5103 17.01 31.7152 17.8164 32.7297 18.8328L34.9391 16.6234C33.6357 15.3153 32.0867 14.2775 30.381 13.5699C28.6753 12.8623 26.8466 12.4987 25 12.5Z" fill="url(#paint1_linear_2_906)"/>
<defs>
<linearGradient id="paint0_linear_2_906" x1="25" y1="4.68848" x2="25" y2="46.8749" gradientUnits="userSpaceOnUse">
<stop stop-color="#5489D4"/>
<stop offset="1" stop-color="#3EA076"/>
</linearGradient>
<linearGradient id="paint1_linear_2_906" x1="25.0008" y1="12.5" x2="25.0008" y2="18.8328" gradientUnits="userSpaceOnUse">
<stop stop-color="#5489D4"/>
<stop offset="1" stop-color="#3EA076"/>
</linearGradient>
</defs>
</svg>
