<svg width="20" height="20" viewBox="0 0 20 20" fill="none" xmlns="http://www.w3.org/2000/svg">
<path d="M10.553 1.22914L10.5538 1.22984L14.6163 5.31203C14.9206 5.61785 14.9195 6.1125 14.6136 6.41691C14.3078 6.72129 13.8131 6.72012 13.5088 6.4143L10.7813 3.67352L10.7813 18.2187C10.7813 18.6502 10.4315 19 10 19C9.56852 19 9.21875 18.6502 9.21875 18.2187L9.21875 3.67355L6.49125 6.41426C6.18688 6.72008 5.69223 6.72125 5.38641 6.41687C5.08051 6.11246 5.07946 5.61777 5.38375 5.31199L9.44625 1.2298L9.44699 1.2291C9.75239 0.923124 10.2486 0.924103 10.553 1.22914Z" fill="#2290FF"/>
</svg>
