<svg width="24" height="26" viewBox="0 0 24 26" fill="none" xmlns="http://www.w3.org/2000/svg">
<path d="M17.9998 6.71875C17.8123 6.52678 17.558 6.41895 17.2928 6.41895C17.0277 6.41895 16.7733 6.52678 16.5858 6.71875L11.9998 11.4146L7.41382 6.71875C7.22629 6.52678 6.97198 6.41895 6.70682 6.41895C6.44165 6.41895 6.18735 6.52678 5.99982 6.71875C5.81235 6.91077 5.70703 7.17117 5.70703 7.44269C5.70703 7.7142 5.81235 7.97461 5.99982 8.16663L10.5858 12.8625L5.99982 17.5584C5.81235 17.7504 5.70703 18.0108 5.70703 18.2823C5.70703 18.5538 5.81235 18.8142 5.99982 19.0063C6.18735 19.1982 6.44165 19.3061 6.70682 19.3061C6.97198 19.3061 7.22629 19.1982 7.41382 19.0063L11.9998 14.3104L16.5858 19.0063C16.7733 19.1982 17.0277 19.3061 17.2928 19.3061C17.558 19.3061 17.8123 19.1982 17.9998 19.0063C18.1873 18.8142 18.2926 18.5538 18.2926 18.2823C18.2926 18.0108 18.1873 17.7504 17.9998 17.5584L13.4138 12.8625L17.9998 8.16663C18.1873 7.97461 18.2926 7.7142 18.2926 7.44269C18.2926 7.17117 18.1873 6.91077 17.9998 6.71875Z" fill="black"/>
</svg>
