<svg width="20" height="20" viewBox="0 0 20 20" fill="none" xmlns="http://www.w3.org/2000/svg">
<g clip-path="url(#clip0_2_181)">
<path d="M9.29074 19.7709L9.29 19.7702L5.2275 15.688C4.92316 15.3821 4.92429 14.8875 5.23015 14.5831C5.53597 14.2787 6.03062 14.2799 6.335 14.5857L9.0625 17.3265L9.0625 2.78125C9.0625 2.34977 9.41226 2 9.84375 2C10.2752 2 10.625 2.34977 10.625 2.78125L10.625 17.3264L13.3525 14.5857C13.6569 14.2799 14.1515 14.2788 14.4573 14.5831C14.7632 14.8875 14.7643 15.3822 14.46 15.688L10.3975 19.7702L10.3968 19.7709C10.0914 20.0769 9.59511 20.0759 9.29074 19.7709Z" fill="#34E7FF"/>
</g>
<defs>
<clipPath id="clip0_2_181">
<rect width="20" height="20" fill="white" transform="matrix(-4.37114e-08 1 1 4.37114e-08 0 0)"/>
</clipPath>
</defs>
</svg>
