<svg width="50" height="50" viewBox="0 0 50 50" fill="none" xmlns="http://www.w3.org/2000/svg">
<path d="M10.4167 43.75C9.27083 43.75 8.29028 43.3424 7.475 42.5271C6.65972 41.7118 6.25139 40.7306 6.25 39.5833V31.25H10.4167V39.5833H18.75V43.75H10.4167ZM31.25 43.75V39.5833H39.5833V31.25H43.75V39.5833C43.75 40.7292 43.3424 41.7104 42.5271 42.5271C41.7118 43.3438 40.7306 43.7514 39.5833 43.75H31.25ZM6.25 18.75V10.4167C6.25 9.27083 6.65833 8.29028 7.475 7.475C8.29167 6.65972 9.27222 6.25139 10.4167 6.25H18.75V10.4167H10.4167V18.75H6.25ZM39.5833 18.75V10.4167H31.25V6.25H39.5833C40.7292 6.25 41.7104 6.65833 42.5271 7.475C43.3438 8.29167 43.7514 9.27222 43.75 10.4167V18.75H39.5833ZM25 35.4167C22.1181 35.4167 19.6618 34.4007 17.6313 32.3687C15.6007 30.3368 14.5847 27.8806 14.5833 25C14.5819 22.1194 15.5979 19.6632 17.6313 17.6313C19.6646 15.5993 22.1208 14.5833 25 14.5833C27.8792 14.5833 30.3361 15.5993 32.3708 17.6313C34.4056 19.6632 35.4208 22.1194 35.4167 25C35.4125 27.8806 34.3965 30.3375 32.3687 32.3708C30.341 34.4042 27.8847 35.4194 25 35.4167ZM25 31.25C26.7361 31.25 28.2118 30.6424 29.4271 29.4271C30.6424 28.2118 31.25 26.7361 31.25 25C31.25 23.2639 30.6424 21.7882 29.4271 20.5729C28.2118 19.3576 26.7361 18.75 25 18.75C23.2639 18.75 21.7882 19.3576 20.5729 20.5729C19.3576 21.7882 18.75 23.2639 18.75 25C18.75 26.7361 19.3576 28.2118 20.5729 29.4271C21.7882 30.6424 23.2639 31.25 25 31.25Z" fill="url(#paint0_linear_2_911)"/>
<defs>
<linearGradient id="paint0_linear_2_911" x1="25" y1="6.25" x2="25" y2="43.75" gradientUnits="userSpaceOnUse">
<stop stop-color="#5489D4"/>
<stop offset="1" stop-color="#3EA076"/>
</linearGradient>
</defs>
</svg>
