<svg width="21" height="20" viewBox="0 0 21 20" fill="none" xmlns="http://www.w3.org/2000/svg">
<g filter="url(#filter0_b_4_5828)">
<mask id="path-1-inside-1_4_5828" fill="white">
<path fill-rule="evenodd" clip-rule="evenodd" d="M20.0985 11.8169C20.9024 10.4246 20.9024 8.70917 20.0985 7.31687L17.1732 2.25C16.3693 0.857696 14.8838 0 13.2761 0H7.42536C5.81766 0 4.33209 0.857692 3.52824 2.25L0.602886 7.31686C-0.200961 8.70917 -0.200963 10.4246 0.602885 11.8169L3.52824 16.8837C4.33209 18.276 5.81766 19.1337 7.42535 19.1337L13.2761 19.1337C14.8838 19.1337 16.3693 18.276 17.1732 16.8837L20.0985 11.8169ZM13.7971 11.4486C14.4933 10.2428 14.4933 8.75721 13.7971 7.55144C13.101 6.34567 11.8144 5.60289 10.4221 5.60289C9.02982 5.60289 7.74327 6.34567 7.04712 7.55144C6.35097 8.75721 6.35097 10.2428 7.04712 11.4486C7.74327 12.6543 9.02981 13.3971 10.4221 13.3971C11.8144 13.3971 13.101 12.6543 13.7971 11.4486Z"/>
</mask>
<path fill-rule="evenodd" clip-rule="evenodd" d="M20.0985 11.8169C20.9024 10.4246 20.9024 8.70917 20.0985 7.31687L17.1732 2.25C16.3693 0.857696 14.8838 0 13.2761 0H7.42536C5.81766 0 4.33209 0.857692 3.52824 2.25L0.602886 7.31686C-0.200961 8.70917 -0.200963 10.4246 0.602885 11.8169L3.52824 16.8837C4.33209 18.276 5.81766 19.1337 7.42535 19.1337L13.2761 19.1337C14.8838 19.1337 16.3693 18.276 17.1732 16.8837L20.0985 11.8169ZM13.7971 11.4486C14.4933 10.2428 14.4933 8.75721 13.7971 7.55144C13.101 6.34567 11.8144 5.60289 10.4221 5.60289C9.02982 5.60289 7.74327 6.34567 7.04712 7.55144C6.35097 8.75721 6.35097 10.2428 7.04712 11.4486C7.74327 12.6543 9.02981 13.3971 10.4221 13.3971C11.8144 13.3971 13.101 12.6543 13.7971 11.4486Z" fill="white"/>
<path d="M20.0985 7.31687L20.2717 7.21687L20.0985 7.31687ZM20.0985 11.8169L20.2717 11.9169L20.0985 11.8169ZM17.1732 2.25L17.3464 2.15V2.15L17.1732 2.25ZM3.52824 2.25L3.70145 2.35L3.52824 2.25ZM0.602886 7.31686L0.776092 7.41686L0.602886 7.31686ZM0.602885 11.8169L0.42968 11.9169H0.42968L0.602885 11.8169ZM3.52824 16.8837L3.70145 16.7837L3.52824 16.8837ZM7.42535 19.1337V18.9337V19.1337ZM13.2761 19.1337V19.3337V19.1337ZM17.1732 16.8837L17.3464 16.9837L17.1732 16.8837ZM13.7971 7.55144L13.9703 7.45144H13.9703L13.7971 7.55144ZM10.4221 5.60289V5.80289V5.60289ZM7.04712 7.55144L7.22032 7.65144L7.04712 7.55144ZM7.04712 11.4486L7.22032 11.3486L7.04712 11.4486ZM19.9253 7.41687C20.6934 8.74729 20.6934 10.3864 19.9253 11.7169L20.2717 11.9169C21.1113 10.4627 21.1113 8.67105 20.2717 7.21687L19.9253 7.41687ZM17 2.35L19.9253 7.41687L20.2717 7.21687L17.3464 2.15L17 2.35ZM13.2761 0.2C14.8123 0.2 16.2318 1.01958 17 2.35L17.3464 2.15C16.5068 0.695816 14.9552 -0.2 13.2761 -0.2V0.2ZM7.42536 0.2H13.2761V-0.2H7.42536V0.2ZM3.70145 2.35C4.46957 1.01957 5.88911 0.2 7.42536 0.2V-0.2C5.74621 -0.2 4.19461 0.695812 3.35504 2.15L3.70145 2.35ZM0.776092 7.41686L3.70145 2.35L3.35504 2.15L0.429681 7.21686L0.776092 7.41686ZM0.77609 11.7169C0.007969 10.3864 0.00797056 8.74729 0.776092 7.41686L0.429681 7.21686C-0.409893 8.67105 -0.409894 10.4627 0.42968 11.9169L0.77609 11.7169ZM3.70145 16.7837L0.77609 11.7169L0.42968 11.9169L3.35504 16.9837L3.70145 16.7837ZM7.42535 18.9337C5.88911 18.9337 4.46957 18.1141 3.70145 16.7837L3.35503 16.9837C4.19461 18.4379 5.7462 19.3337 7.42535 19.3337V18.9337ZM13.2761 18.9337L7.42535 18.9337V19.3337L13.2761 19.3337V18.9337ZM17 16.7837C16.2318 18.1142 14.8123 18.9337 13.2761 18.9337V19.3337C14.9552 19.3337 16.5068 18.4379 17.3464 16.9837L17 16.7837ZM19.9253 11.7169L17 16.7837L17.3464 16.9837L20.2717 11.9169L19.9253 11.7169ZM13.6239 7.65144C14.2843 8.79533 14.2843 10.2047 13.6239 11.3486L13.9703 11.5486C14.7022 10.2809 14.7022 8.71909 13.9703 7.45144L13.6239 7.65144ZM10.4221 5.80289C11.743 5.80289 12.9635 6.50755 13.6239 7.65144L13.9703 7.45144C13.2384 6.18379 11.8859 5.40289 10.4221 5.40289V5.80289ZM7.22032 7.65144C7.88075 6.50755 9.10127 5.80289 10.4221 5.80289V5.40289C8.95836 5.40289 7.60579 6.18379 6.87391 7.45144L7.22032 7.65144ZM7.22032 11.3486C6.5599 10.2047 6.5599 8.79533 7.22032 7.65144L6.87391 7.45144C6.14204 8.71909 6.14204 10.2809 6.87391 11.5486L7.22032 11.3486ZM10.4221 13.1971C9.10127 13.1971 7.88075 12.4924 7.22032 11.3486L6.87391 11.5486C7.60579 12.8162 8.95836 13.5971 10.4221 13.5971V13.1971ZM13.6239 11.3486C12.9635 12.4924 11.743 13.1971 10.4221 13.1971V13.5971C11.8859 13.5971 13.2384 12.8162 13.9703 11.5486L13.6239 11.3486Z" fill="url(#paint0_linear_4_5828)" mask="url(#path-1-inside-1_4_5828)"/>
</g>
<defs>
<filter id="filter0_b_4_5828" x="-25" y="-25" width="70.7012" height="69.1338" filterUnits="userSpaceOnUse" color-interpolation-filters="sRGB">
<feFlood flood-opacity="0" result="BackgroundImageFix"/>
<feGaussianBlur in="BackgroundImageFix" stdDeviation="12.5"/>
<feComposite in2="SourceAlpha" operator="in" result="effect1_backgroundBlur_4_5828"/>
<feBlend mode="normal" in="SourceGraphic" in2="effect1_backgroundBlur_4_5828" result="shape"/>
</filter>
<linearGradient id="paint0_linear_4_5828" x1="10.3507" y1="0" x2="10.3507" y2="19.1337" gradientUnits="userSpaceOnUse">
<stop stop-color="white"/>
<stop offset="1" stop-color="white" stop-opacity="0"/>
</linearGradient>
</defs>
</svg>
